<?xml version="1.0" standalone="no"?>
<!DOCTYPE svg PUBLIC "-//W3C//DTD SVG 20010904//EN"
 "http://www.w3.org/TR/2001/REC-SVG-20010904/DTD/svg10.dtd">
<svg version="1.0" xmlns="http://www.w3.org/2000/svg"
 width="596.000000pt" height="84.000000pt" viewBox="0 0 596.000000 84.000000"
 preserveAspectRatio="xMidYMid meet">

<g transform="translate(0.000000,84.000000) scale(0.100000,-0.100000)"
fill="#000000" stroke="none">
<path d="M965 831 c-106 -26 -165 -102 -165 -214 0 -48 6 -76 25 -114 30 -60
56 -81 185 -153 139 -78 170 -111 170 -187 0 -82 -68 -137 -170 -137 -73 -1
-126 27 -167 88 -18 27 -33 52 -33 57 0 5 21 9 46 9 l46 0 -29 28 c-19 18 -58
98 -123 254 -52 125 -99 228 -105 228 -5 0 -55 -106 -109 -236 -72 -169 -107
-240 -125 -254 l-26 -19 85 0 c83 1 84 1 52 15 -43 19 -48 35 -27 89 l17 45
84 0 85 0 19 -46 c11 -25 20 -52 20 -59 0 -14 -22 -25 -51 -25 -10 0 -19 -4
-19 -10 0 -6 28 -10 65 -10 l65 0 0 -79 c0 -95 -8 -90 171 -98 120 -5 129 -4
180 19 100 46 142 108 143 208 1 118 -43 170 -218 264 -59 32 -122 72 -140 91
-99 99 -10 244 135 220 55 -9 97 -49 130 -120 l28 -60 1 96 0 96 -69 12 c-77
12 -130 13 -176 2z m-329 -383 c16 -40 31 -76 32 -80 2 -5 -29 -8 -68 -8 -39
0 -70 3 -68 8 2 4 16 40 32 80 16 39 32 72 36 72 4 0 20 -33 36 -72z"/>
<path d="M2235 829 c-133 -27 -260 -129 -306 -246 -34 -84 -34 -252 0 -336 32
-81 115 -168 200 -210 65 -32 68 -32 211 -32 87 0 161 5 186 12 l41 13 10 77
c11 82 8 100 -9 69 -18 -33 -79 -95 -112 -116 -18 -10 -56 -24 -85 -31 -214
-46 -369 215 -306 515 19 90 46 144 98 195 114 114 317 84 374 -54 10 -25 22
-45 26 -45 4 0 6 39 5 87 l-3 88 -40 7 c-76 13 -240 17 -290 7z"/>
<path d="M0 821 c0 -5 14 -11 30 -15 20 -4 34 -14 40 -31 14 -37 13 -690 -1
-716 -6 -12 -25 -27 -42 -34 -29 -13 -17 -14 128 -14 152 0 158 1 120 15 -64
23 -65 28 -65 226 l0 178 61 0 c77 0 96 -11 122 -68 l22 -47 3 68 c2 37 2 96
0 130 l-3 62 -17 -37 c-29 -65 -50 -78 -123 -78 l-65 0 0 170 0 170 90 0 c137
0 176 -24 213 -130 l15 -45 1 103 1 102 -265 0 c-146 0 -265 -4 -265 -9z"/>
<path d="M1250 728 c0 -105 7 -114 30 -40 22 71 101 123 167 110 17 -3 18 -22
20 -358 3 -390 2 -398 -55 -415 -63 -18 -30 -25 123 -25 144 0 195 9 126 23
-63 13 -61 2 -61 408 l0 369 35 0 c43 0 94 -20 118 -47 9 -11 26 -44 36 -74
l19 -54 3 103 4 102 -282 0 -283 0 0 -102z"/>
<path d="M2670 821 c0 -5 13 -11 29 -14 53 -11 54 -19 41 -376 -8 -216 -16
-336 -25 -357 -7 -18 -25 -36 -44 -43 -17 -8 -31 -17 -31 -22 0 -5 47 -9 105
-9 98 0 132 10 85 25 -11 3 -29 18 -40 33 -21 26 -21 32 -14 292 4 146 10 275
13 287 4 16 41 -73 126 -307 65 -182 122 -330 126 -330 3 0 60 147 125 328
l119 327 6 -85 c4 -47 9 -180 13 -296 7 -234 6 -238 -55 -251 -83 -16 3 -23
301 -23 301 0 384 7 298 24 -64 13 -68 23 -68 190 l0 151 59 -3 c68 -4 169 19
218 49 67 41 103 145 83 236 -22 98 -89 153 -210 172 -74 12 -360 15 -360 4 0
-5 15 -15 33 -23 l32 -15 3 -365 c2 -362 2 -365 -19 -383 -31 -25 -122 -24
-148 2 -25 25 -28 58 -41 424 -12 323 -10 333 41 344 62 12 25 24 -67 21 l-97
-3 -105 -293 c-58 -161 -108 -289 -112 -285 -4 4 -53 137 -110 296 l-103 287
-103 0 c-57 0 -104 -4 -104 -9z m1267 -47 c47 -34 66 -86 66 -179 0 -141 -46
-200 -156 -200 l-62 0 -3 204 -2 203 65 -4 c44 -3 74 -10 92 -24z"/>
<path d="M4220 468 c-74 -199 -144 -375 -155 -392 -11 -17 -35 -38 -52 -46
-18 -8 -33 -18 -33 -22 0 -5 52 -8 115 -8 70 0 115 4 115 10 0 6 -10 10 -23
10 -35 0 -67 28 -67 58 0 14 14 63 31 109 l32 83 122 0 123 0 32 -82 c44 -113
44 -139 3 -158 -18 -8 -33 -18 -33 -22 0 -12 438 -10 445 2 3 6 -3 10 -15 10
-40 0 -79 28 -85 63 -3 17 -4 155 -3 306 l3 274 220 -331 c121 -182 226 -332
233 -332 9 0 12 83 12 383 0 414 2 427 54 427 39 0 63 -40 161 -259 l95 -213
0 -134 c0 -130 -1 -136 -25 -159 -13 -14 -33 -25 -45 -25 -11 0 -20 -4 -20
-10 0 -6 58 -10 155 -10 97 0 155 4 155 10 0 6 -8 10 -19 10 -10 0 -30 9 -45
21 -26 20 -26 21 -26 163 l0 142 88 196 c49 108 96 207 105 221 9 14 32 31 52
38 19 7 35 17 35 21 0 4 -52 8 -115 8 -70 0 -115 -4 -115 -10 0 -5 10 -10 23
-10 30 0 67 -27 67 -50 0 -17 -150 -364 -155 -358 -12 14 -155 356 -155 369 0
13 14 23 48 33 44 14 31 15 -208 15 -232 0 -252 -2 -216 -15 69 -25 66 -12 66
-283 l0 -246 -182 273 -181 272 -91 0 c-87 -1 -90 -1 -59 -15 19 -8 35 -23 38
-37 3 -13 4 -182 3 -377 -3 -323 -5 -355 -20 -365 -14 -8 -21 -7 -33 5 -9 9
-74 173 -146 365 -71 192 -136 368 -145 392 -8 23 -19 42 -22 42 -4 0 -68
-163 -142 -362z m144 -14 c24 -65 47 -127 51 -136 7 -17 -2 -18 -108 -18
l-115 0 54 147 c30 81 54 149 54 152 1 14 22 -35 64 -145z"/>
<path d="M2332 641 c-96 -33 -172 -132 -172 -224 0 -83 63 -177 143 -216 153
-74 341 44 341 214 0 105 -71 199 -175 229 -65 20 -72 20 -137 -3z m142 -48
c34 -33 50 -109 44 -207 -8 -123 -44 -176 -118 -176 -77 0 -116 85 -108 238 5
105 26 151 77 168 44 14 75 7 105 -23z"/>
</g>
</svg>
