<?xml version="1.0" standalone="no"?>
<!DOCTYPE svg PUBLIC "-//W3C//DTD SVG 20010904//EN"
 "http://www.w3.org/TR/2001/REC-SVG-20010904/DTD/svg10.dtd">
<svg version="1.0" xmlns="http://www.w3.org/2000/svg"
 width="1600.000000pt" height="382.000000pt" viewBox="0 0 1600.000000 382.000000"
 preserveAspectRatio="xMidYMid meet">

<g transform="translate(0.000000,382.000000) scale(0.100000,-0.100000)"
fill="#000000" stroke="none">
<path d="M2820 3746 c-321 -68 -566 -303 -652 -626 l-23 -85 0 -1110 c0 -897
3 -1121 14 -1170 43 -191 153 -371 297 -486 331 -263 797 -245 1101 44 128
122 214 275 248 442 14 71 15 203 13 1205 l-3 1125 -33 95 c-95 273 -303 473
-572 550 -96 27 -296 36 -390 16z m270 -616 c42 -22 81 -62 106 -110 18 -34
19 -80 19 -1101 l0 -1066 -30 -49 c-19 -30 -49 -60 -79 -79 -44 -27 -58 -30
-127 -30 -70 0 -81 3 -120 30 -24 17 -57 50 -74 74 l-30 43 -3 1061 c-3 1172
-6 1108 60 1176 77 78 186 98 278 51z"/>
<path d="M80 1920 l0 -1790 300 0 300 0 0 770 0 770 280 0 280 0 0 300 0 300
-280 0 -280 0 2 418 3 417 433 3 432 2 0 300 0 300 -735 0 -735 0 0 -1790z"/>
<path d="M4620 1920 l0 -1790 303 2 302 3 3 1489 2 1489 143 -5 c160 -5 212
-21 263 -81 59 -70 59 -71 59 -452 0 -311 -2 -357 -18 -410 -46 -151 -152
-259 -309 -316 -51 -19 -58 -24 -52 -43 4 -12 105 -392 224 -846 l217 -825
312 -3 c171 -1 311 0 311 4 0 3 -63 223 -140 488 -76 264 -168 580 -203 702
l-64 221 77 79 c117 122 182 247 223 429 17 79 20 136 24 475 5 430 -1 504
-57 648 -78 202 -259 388 -458 468 -146 59 -137 58 -669 62 l-493 3 0 -1791z"/>
<path d="M6960 3410 l0 -300 268 -2 267 -3 3 -1487 2 -1488 300 0 300 0 2
1488 3 1487 268 3 267 2 0 300 0 300 -840 0 -840 0 0 -300z"/>
<path d="M9340 2270 c0 -1586 -3 -1512 62 -1667 102 -246 309 -425 573 -496
110 -29 296 -29 410 2 295 78 524 306 607 606 l23 80 3 1458 3 1457 -306 0
-305 0 -2 -1434 -3 -1434 -30 -43 c-49 -70 -104 -102 -180 -107 -115 -8 -208
56 -241 164 -12 40 -14 269 -14 1451 l0 1403 -300 0 -300 0 0 -1440z"/>
<path d="M11790 1920 l0 -1790 303 2 302 3 5 863 5 863 264 -848 c145 -466
268 -856 273 -865 8 -17 34 -18 338 -18 l330 0 0 1790 0 1790 -300 0 -300 0 0
-967 c0 -531 -2 -964 -5 -962 -3 4 -212 664 -562 1782 l-46 147 -304 0 -303 0
0 -1790z"/>
<path d="M14410 1920 l0 -1790 735 0 735 0 0 305 0 305 -435 0 -435 0 2 463 3
462 278 3 277 2 0 300 0 300 -277 2 -278 3 0 415 0 415 433 3 432 2 0 300 0
300 -735 0 -735 0 0 -1790z"/>
</g>
</svg>
