<?xml version="1.0" standalone="no"?>
<!DOCTYPE svg PUBLIC "-//W3C//DTD SVG 20010904//EN"
 "http://www.w3.org/TR/2001/REC-SVG-20010904/DTD/svg10.dtd">
<svg version="1.0" xmlns="http://www.w3.org/2000/svg"
 width="314.000000pt" height="160.000000pt" viewBox="0 0 314.000000 160.000000"
 preserveAspectRatio="xMidYMid meet">

<g transform="translate(0.000000,160.000000) scale(0.100000,-0.100000)"
fill="#000000" stroke="none">
<path d="M930 975 c0 -127 1 -135 20 -135 17 0 20 8 22 92 l3 92 60 -92 c86
-132 95 -128 95 43 0 113 -2 135 -15 135 -15 0 -19 -28 -15 -132 1 -27 -2 -48
-7 -48 -4 0 -35 41 -68 90 -86 130 -95 126 -95 -45z"/>
<path d="M1235 1098 c-35 -96 -85 -241 -85 -248 0 -6 9 -10 20 -10 14 0 21 9
26 35 6 34 8 35 49 35 41 0 44 -2 55 -35 9 -27 17 -35 36 -35 13 0 24 3 23 8
0 4 -20 63 -42 132 -31 91 -47 126 -60 128 -9 2 -19 -2 -22 -10z m36 -151 c-5
-5 -17 -7 -27 -5 -21 4 -21 30 -2 77 11 26 11 25 24 -19 8 -26 10 -48 5 -53z"/>
<path d="M1337 1103 c-18 -17 -4 -32 31 -35 l37 -3 -4 -112 -3 -113 26 0 26 0
0 115 0 115 35 0 c28 0 35 4 35 20 0 18 -7 20 -88 20 -49 0 -92 -3 -95 -7z"/>
<path d="M1538 991 c-4 -141 -2 -151 23 -151 18 0 19 8 19 135 0 127 -1 135
-19 135 -18 0 -20 -9 -23 -119z"/>
<path d="M1655 1078 c-104 -96 -15 -286 110 -234 38 16 62 55 70 112 7 54 -14
104 -54 131 -48 32 -84 30 -126 -9z m109 -27 c43 -48 24 -164 -30 -177 -22 -6
-32 -2 -51 20 -36 42 -29 141 11 168 20 14 53 8 70 -11z"/>
<path d="M1862 970 c-3 -124 -2 -130 17 -130 19 0 20 8 23 91 l3 90 61 -88
c80 -116 93 -119 96 -16 4 178 4 178 -14 181 -15 3 -18 -8 -20 -88 l-3 -92
-60 91 c-42 64 -66 91 -80 91 -19 0 -20 -8 -23 -130z"/>
<path d="M2165 1088 c-3 -7 -23 -64 -45 -126 -22 -63 -40 -116 -40 -118 0 -2
9 -4 19 -4 13 0 23 11 31 36 11 33 14 35 53 32 37 -3 42 -6 49 -35 7 -26 14
-33 34 -33 22 0 24 3 19 23 -57 189 -77 237 -96 237 -11 0 -22 -6 -24 -12z
m44 -130 c1 -13 -7 -18 -24 -18 -28 0 -30 8 -14 65 l12 40 13 -35 c7 -19 13
-43 13 -52z"/>
<path d="M2310 970 l0 -130 65 0 c51 0 65 3 65 15 0 11 -12 15 -45 15 l-45 0
0 115 c0 108 -1 115 -20 115 -19 0 -20 -7 -20 -130z"/>
<path d="M995 763 c-58 -15 -95 -67 -95 -133 0 -98 81 -160 178 -134 20 6 22
13 22 65 0 52 -2 59 -20 59 -17 0 -20 -7 -20 -45 0 -43 -1 -45 -30 -45 -49 0
-80 38 -80 97 1 70 25 97 86 98 54 0 70 19 29 35 -28 10 -37 11 -70 3z"/>
<path d="M1383 763 c-12 -2 -36 -20 -53 -39 -26 -30 -30 -43 -30 -90 0 -89 41
-144 108 -144 126 0 157 216 37 266 -19 8 -36 13 -37 13 -2 -1 -13 -4 -25 -6z
m66 -59 c15 -19 21 -41 21 -78 0 -64 -20 -96 -60 -96 -49 0 -79 70 -60 140 17
63 64 79 99 34z"/>
<path d="M1149 743 c-2 -10 -4 -70 -4 -133 l0 -114 68 -4 c62 -3 67 -2 67 17
0 18 -6 21 -45 21 l-45 0 0 45 0 45 40 0 c29 0 40 4 40 15 0 11 -11 15 -41 15
l-40 0 3 38 c2 20 9 38 16 38 6 1 23 2 37 3 15 1 25 7 25 16 0 12 -13 15 -59
15 -48 0 -59 -3 -62 -17z"/>
<path d="M1598 742 c-107 -66 -57 -252 68 -252 68 0 74 5 74 66 0 47 -2 54
-20 54 -17 0 -20 -7 -20 -40 0 -39 -1 -40 -34 -40 -95 0 -104 171 -11 194 14
4 34 2 45 -4 16 -9 22 -7 27 6 3 9 0 20 -8 25 -23 14 -92 10 -121 -9z"/>
<path d="M1790 625 c0 -128 1 -135 20 -135 17 0 20 7 20 50 0 29 5 50 11 50 5
0 20 -22 32 -50 17 -38 27 -50 45 -50 27 0 28 8 0 64 l-21 44 21 27 c29 37 28
80 -3 110 -19 20 -34 25 -75 25 l-50 0 0 -135z m98 62 c4 -33 -13 -57 -39 -57
-16 0 -19 8 -19 46 0 44 1 45 28 42 21 -2 28 -9 30 -31z"/>
<path d="M2040 757 c0 -2 -20 -61 -45 -131 -25 -71 -45 -130 -45 -132 0 -2 8
-4 18 -4 13 0 24 13 34 39 12 29 21 39 34 36 11 -2 29 -4 40 -4 17 -1 23 -9
28 -36 6 -29 11 -35 31 -35 14 0 25 3 25 7 0 4 -18 65 -40 135 -34 107 -44
128 -60 128 -11 0 -20 -2 -20 -3z m39 -139 c1 -13 -7 -18 -24 -18 -29 0 -28
-3 -13 58 l11 46 13 -34 c7 -19 13 -43 13 -52z"/>
<path d="M2180 625 c0 -128 1 -135 20 -135 21 0 22 3 22 63 0 30 3 37 19 37
28 0 75 26 83 45 8 22 7 77 -2 91 -14 21 -51 34 -96 34 l-46 0 0 -135z m100
80 c17 -21 4 -64 -23 -74 -31 -12 -33 -9 -29 43 3 36 8 46 22 46 10 0 23 -7
30 -15z"/>
<path d="M2360 626 l0 -136 24 0 c23 0 24 3 23 63 l-2 62 48 3 47 3 0 -65 c0
-64 1 -66 25 -66 l25 0 0 135 0 135 -25 0 c-24 0 -25 -3 -25 -55 l0 -54 -47 2
-46 2 -1 50 c-1 44 -4 50 -23 53 -23 3 -23 3 -23 -132z"/>
<path d="M2590 625 l0 -135 25 0 25 0 0 135 0 135 -25 0 -25 0 0 -135z"/>
<path d="M2745 750 c-89 -36 -102 -192 -21 -246 25 -16 95 -22 115 -10 6 4 11
14 11 23 0 11 -6 14 -27 9 -33 -9 -74 8 -92 36 -19 31 -16 97 7 127 16 22 28
26 65 25 29 0 48 5 51 13 11 27 -62 43 -109 23z"/>
</g>
</svg>
