<?xml version="1.0" standalone="no"?>
<!DOCTYPE svg PUBLIC "-//W3C//DTD SVG 20010904//EN"
 "http://www.w3.org/TR/2001/REC-SVG-20010904/DTD/svg10.dtd">
<svg version="1.0" xmlns="http://www.w3.org/2000/svg"
 width="225.000000pt" height="225.000000pt" viewBox="0 0 225.000000 225.000000"
 preserveAspectRatio="xMidYMid meet">

<g transform="translate(0.000000,225.000000) scale(0.100000,-0.100000)"
fill="#000000" stroke="none">
<path d="M0 1125 l0 -1125 1125 0 1125 0 0 1125 0 1125 -1125 0 -1125 0 0
-1125z m540 481 l0 -74 43 16 c38 13 49 14 76 2 18 -7 37 -24 42 -37 5 -13 9
-76 9 -139 l0 -114 -40 0 -39 0 -3 112 c-3 99 -5 113 -21 116 -10 2 -29 -4
-42 -12 -24 -16 -25 -21 -25 -116 l0 -100 -40 0 -40 0 2 202 3 203 30 6 c17 4
33 7 38 8 4 0 7 -32 7 -73z m-116 17 c-10 -42 -12 -43 -60 -43 l-44 0 0 -160
0 -160 -40 0 -40 0 0 160 0 160 -50 0 -50 0 0 35 0 35 145 0 145 0 -6 -27z
m511 -77 c39 -17 63 -56 72 -121 l6 -45 -87 0 c-74 0 -86 -2 -86 -17 0 -25 30
-53 57 -53 13 0 37 7 52 15 27 13 29 13 40 -12 6 -14 10 -27 9 -28 -2 -1 -17
-10 -35 -19 -65 -33 -150 -11 -189 50 -12 18 -18 46 -18 90 0 74 19 108 75
136 41 22 59 22 104 4z m515 -460 l0 -75 28 15 c38 20 75 17 106 -7 26 -20 26
-22 26 -150 l0 -129 -40 0 -40 0 0 115 c0 110 -1 115 -21 115 -11 0 -29 -5
-40 -10 -17 -10 -19 -22 -19 -115 l0 -105 -40 0 -39 0 -3 200 -3 201 30 8 c55
16 55 16 55 -63z m-1201 -56 c11 -56 21 -111 21 -123 1 -32 16 -3 24 48 4 22
14 71 23 108 l15 68 46 -3 47 -3 24 -124 25 -124 24 127 24 126 44 0 c29 0 44
-4 43 -12 0 -7 -22 -96 -47 -198 l-47 -185 -45 0 -44 0 -25 123 -26 123 -25
-123 -25 -123 -46 -3 -45 -3 -44 183 c-23 100 -45 190 -48 200 -4 15 2 18 40
18 l45 0 22 -100z m1052 0 c16 0 29 -5 29 -11 0 -23 -22 -49 -40 -49 -18 0
-20 -7 -20 -90 l0 -90 30 0 c25 0 30 -4 30 -24 0 -41 -69 -50 -114 -15 -25 20
-26 24 -26 120 0 81 -3 99 -15 99 -10 0 -15 10 -15 30 0 20 5 30 15 30 10 0
15 10 15 34 0 31 3 35 38 43 l37 9 3 -43 c3 -40 5 -43 33 -43z m-516 -4 c39
-17 63 -56 72 -121 l6 -45 -87 0 c-92 0 -100 -5 -70 -48 17 -25 56 -28 94 -8
21 12 26 12 37 -3 20 -26 15 -36 -22 -54 -50 -24 -105 -22 -146 6 -44 29 -63
69 -63 132 0 63 27 114 74 137 42 22 60 22 105 4z m284 3 c44 -15 51 -35 51
-134 0 -47 5 -95 11 -106 8 -16 7 -26 -6 -45 -16 -24 -18 -25 -41 -9 -18 12
-29 13 -43 5 -37 -19 -100 -12 -126 15 -27 26 -34 80 -14 117 13 24 67 48 109
48 23 0 30 4 30 20 0 11 -7 23 -16 27 -15 6 -30 2 -85 -21 -11 -5 -19 1 -27
19 -16 35 -10 42 46 59 59 18 71 19 111 5z m778 -14 c30 -20 53 -72 53 -120
l0 -35 -86 0 c-84 0 -85 0 -79 -22 14 -47 57 -60 107 -34 25 13 28 13 42 -10
15 -22 15 -24 -10 -40 -14 -10 -49 -19 -77 -21 -93 -7 -147 50 -147 154 0 120
105 188 197 128z m173 -1 c0 -12 5 -11 26 5 26 20 55 27 66 15 3 -3 1 -21 -5
-40 -7 -23 -15 -33 -25 -29 -7 3 -22 0 -33 -5 -17 -10 -19 -22 -19 -115 l0
-105 -40 0 -40 0 0 118 c0 64 -3 127 -6 139 -5 18 -1 23 27 31 39 10 49 7 49
-14z m-1460 -458 l0 -75 28 15 c44 23 102 14 124 -20 4 -6 8 -68 8 -138 l0
-128 -35 0 -35 0 0 99 c0 55 -3 106 -6 115 -7 18 -36 21 -65 6 -17 -10 -19
-22 -19 -115 l0 -105 -40 0 -40 0 0 204 0 205 28 4 c15 2 33 5 40 6 9 1 12
-20 12 -73z m1470 -104 c0 -167 1 -179 21 -195 29 -26 21 -51 -18 -55 -24 -2
-39 3 -58 22 -25 25 -25 26 -25 210 l0 185 28 4 c15 2 33 5 40 6 9 1 12 -40
12 -177z m-1625 146 c30 -13 31 -19 7 -48 -15 -18 -21 -20 -45 -11 -37 14 -73
5 -97 -26 -40 -51 -22 -219 25 -237 28 -10 80 -7 94 6 10 11 16 8 31 -12 11
-14 20 -28 20 -31 0 -12 -79 -39 -113 -39 -55 0 -119 39 -147 90 -20 37 -25
58 -25 116 1 62 5 79 30 119 17 27 46 56 65 66 39 21 116 25 155 7z m579 -117
c18 -19 21 -35 23 -117 2 -55 8 -102 14 -110 9 -11 8 -19 -6 -34 -22 -24 -38
-25 -55 -5 -12 14 -15 14 -30 0 -9 -8 -35 -15 -59 -15 -34 0 -49 6 -72 29 -66
67 -11 161 96 161 32 0 36 3 33 23 -4 28 -45 34 -86 13 -29 -15 -31 -15 -47
10 -20 30 -14 38 40 59 53 20 121 13 149 -14z m154 14 c7 -14 11 -14 38 0 39
20 66 19 98 -6 26 -20 26 -22 26 -150 l0 -129 -40 0 -40 0 0 115 c0 123 -3
130 -51 105 -17 -10 -19 -22 -19 -115 l0 -105 -40 0 -40 0 0 124 c0 68 -3 131
-6 139 -3 10 4 18 23 25 39 14 41 14 51 -3z m295 1 c5 -13 11 -13 46 1 34 13
45 14 71 3 43 -18 50 -43 50 -176 l0 -114 -40 0 -40 0 0 110 c0 119 -7 133
-49 110 -19 -10 -21 -20 -21 -115 l0 -105 -40 0 -40 0 -2 110 c-1 61 -2 124
-2 142 -1 26 4 33 24 39 37 10 37 10 43 -5z m408 -9 c36 -24 57 -70 58 -124
l1 -33 -85 0 c-93 0 -105 -10 -65 -50 23 -23 55 -25 90 -6 21 12 26 12 37 -3
21 -27 15 -38 -27 -55 -112 -45 -200 15 -200 137 0 69 19 111 63 137 42 26 86
25 128 -3z"/>
<path d="M856 1484 c-28 -28 -20 -44 24 -44 32 0 40 4 40 18 0 38 -37 54 -64
26z"/>
<path d="M706 958 c-23 -33 -20 -38 24 -38 32 0 40 4 40 18 0 21 -18 42 -36
42 -7 0 -20 -10 -28 -22z"/>
<path d="M980 845 c-20 -24 -3 -57 28 -53 22 2 28 9 30 36 3 28 0 32 -21 32
-14 0 -30 -7 -37 -15z"/>
<path d="M1752 968 c-7 -7 -12 -20 -12 -30 0 -14 8 -18 40 -18 44 0 52 16 24
44 -19 19 -36 20 -52 4z"/>
<path d="M864 316 c-9 -24 0 -51 19 -54 25 -5 47 16 47 44 0 20 -5 24 -30 24
-17 0 -33 -6 -36 -14z"/>
<path d="M1746 428 c-24 -34 -20 -38 30 -38 42 0 45 1 38 23 -13 42 -45 49
-68 15z"/>
</g>
</svg>
